<mxfile host="app.diagrams.net" agent="Mozilla/5.0 (Windows NT 10.0; Win64; x64) AppleWebKit/537.36 (KHTML, like Gecko) Chrome/131.0.0.0 Safari/537.36" version="25.0.1">
  <diagram id="C5RBs43oDa-KdzZeNtuy" name="Page-1">
    <mxGraphModel dx="902" dy="881" grid="1" gridSize="10" guides="1" tooltips="1" connect="1" arrows="1" fold="1" page="1" pageScale="1" pageWidth="827" pageHeight="1169" math="0" shadow="0">
      <root>
        <mxCell id="WIyWlLk6GJQsqaUBKTNV-0" />
        <mxCell id="WIyWlLk6GJQsqaUBKTNV-1" parent="WIyWlLk6GJQsqaUBKTNV-0" />
        <mxCell id="d4673frrzXCDOLXUQlWJ-34" value="" style="rounded=0;html=1;jettySize=auto;orthogonalLoop=1;fontSize=11;endArrow=block;endFill=0;endSize=8;strokeWidth=1;shadow=0;labelBackgroundColor=none;edgeStyle=orthogonalEdgeStyle;" edge="1" parent="WIyWlLk6GJQsqaUBKTNV-1" source="d4673frrzXCDOLXUQlWJ-35" target="d4673frrzXCDOLXUQlWJ-37">
          <mxGeometry relative="1" as="geometry" />
        </mxCell>
        <mxCell id="d4673frrzXCDOLXUQlWJ-35" value="주문하기" style="rounded=1;whiteSpace=wrap;html=1;fontSize=12;glass=0;strokeWidth=1;shadow=0;" vertex="1" parent="WIyWlLk6GJQsqaUBKTNV-1">
          <mxGeometry y="1630" width="120" height="40" as="geometry" />
        </mxCell>
        <mxCell id="d4673frrzXCDOLXUQlWJ-36" value="포장" style="edgeStyle=orthogonalEdgeStyle;rounded=0;html=1;jettySize=auto;orthogonalLoop=1;fontSize=11;endArrow=block;endFill=0;endSize=8;strokeWidth=1;shadow=0;labelBackgroundColor=none;exitX=1;exitY=0;exitDx=0;exitDy=0;entryX=0;entryY=0;entryDx=0;entryDy=0;" edge="1" parent="WIyWlLk6GJQsqaUBKTNV-1" source="d4673frrzXCDOLXUQlWJ-37" target="d4673frrzXCDOLXUQlWJ-39">
          <mxGeometry y="10" relative="1" as="geometry">
            <mxPoint as="offset" />
            <mxPoint x="415" y="1660" as="targetPoint" />
            <mxPoint x="300" y="1610" as="sourcePoint" />
            <Array as="points">
              <mxPoint x="275" y="1610" />
              <mxPoint x="458" y="1610" />
              <mxPoint x="458" y="1632" />
            </Array>
          </mxGeometry>
        </mxCell>
        <mxCell id="d4673frrzXCDOLXUQlWJ-37" value="포장/매장" style="rhombus;whiteSpace=wrap;html=1;shadow=0;fontFamily=Helvetica;fontSize=12;align=center;strokeWidth=1;spacing=6;spacingTop=-4;" vertex="1" parent="WIyWlLk6GJQsqaUBKTNV-1">
          <mxGeometry x="200" y="1610" width="100" height="80" as="geometry" />
        </mxCell>
        <mxCell id="d4673frrzXCDOLXUQlWJ-38" value="매장" style="edgeStyle=orthogonalEdgeStyle;rounded=0;html=1;jettySize=auto;orthogonalLoop=1;fontSize=11;endArrow=block;endFill=0;endSize=8;strokeWidth=1;shadow=0;labelBackgroundColor=none;entryX=0;entryY=1;entryDx=0;entryDy=0;exitX=1;exitY=1;exitDx=0;exitDy=0;" edge="1" parent="WIyWlLk6GJQsqaUBKTNV-1" source="d4673frrzXCDOLXUQlWJ-37" target="d4673frrzXCDOLXUQlWJ-39">
          <mxGeometry y="10" relative="1" as="geometry">
            <mxPoint as="offset" />
            <mxPoint x="330" y="1752.9999999999998" as="targetPoint" />
            <mxPoint x="240" y="1753" as="sourcePoint" />
            <Array as="points">
              <mxPoint x="275" y="1700" />
            </Array>
          </mxGeometry>
        </mxCell>
        <mxCell id="d4673frrzXCDOLXUQlWJ-39" value="처음으로" style="rhombus;whiteSpace=wrap;html=1;shadow=0;fontFamily=Helvetica;fontSize=12;align=center;strokeWidth=1;spacing=6;spacingTop=-4;" vertex="1" parent="WIyWlLk6GJQsqaUBKTNV-1">
          <mxGeometry x="430" y="1610" width="110" height="90" as="geometry" />
        </mxCell>
        <mxCell id="d4673frrzXCDOLXUQlWJ-40" value="Yes" style="rounded=0;html=1;jettySize=auto;orthogonalLoop=1;fontSize=11;endArrow=classic;endFill=1;endSize=8;strokeWidth=1;shadow=0;labelBackgroundColor=none;edgeStyle=orthogonalEdgeStyle;entryX=0.417;entryY=0.987;entryDx=0;entryDy=0;entryPerimeter=0;exitX=0.5;exitY=1;exitDx=0;exitDy=0;" edge="1" parent="WIyWlLk6GJQsqaUBKTNV-1" source="d4673frrzXCDOLXUQlWJ-39">
          <mxGeometry x="0.6355" y="-10" relative="1" as="geometry">
            <mxPoint as="offset" />
            <mxPoint x="440" y="1730" as="sourcePoint" />
            <mxPoint x="90" y="1670" as="targetPoint" />
            <Array as="points">
              <mxPoint x="485" y="1720" />
              <mxPoint x="90" y="1720" />
            </Array>
          </mxGeometry>
        </mxCell>
        <mxCell id="d4673frrzXCDOLXUQlWJ-42" value="No" style="edgeStyle=orthogonalEdgeStyle;rounded=0;html=1;jettySize=auto;orthogonalLoop=1;fontSize=11;endArrow=block;endFill=0;endSize=8;strokeWidth=1;shadow=0;labelBackgroundColor=none;entryX=0;entryY=0.5;entryDx=0;entryDy=0;" edge="1" parent="WIyWlLk6GJQsqaUBKTNV-1" target="d4673frrzXCDOLXUQlWJ-44">
          <mxGeometry y="10" relative="1" as="geometry">
            <mxPoint as="offset" />
            <mxPoint x="540" y="1655" as="sourcePoint" />
          </mxGeometry>
        </mxCell>
        <mxCell id="d4673frrzXCDOLXUQlWJ-49" style="edgeStyle=none;shape=connector;curved=0;rounded=0;orthogonalLoop=1;jettySize=auto;html=1;exitX=1;exitY=0.5;exitDx=0;exitDy=0;entryX=0;entryY=0.5;entryDx=0;entryDy=0;strokeColor=default;align=center;verticalAlign=middle;fontFamily=Helvetica;fontSize=12;fontColor=default;labelBackgroundColor=default;startSize=8;endArrow=block;endSize=8;endFill=0;" edge="1" parent="WIyWlLk6GJQsqaUBKTNV-1" source="d4673frrzXCDOLXUQlWJ-43" target="d4673frrzXCDOLXUQlWJ-48">
          <mxGeometry relative="1" as="geometry" />
        </mxCell>
        <mxCell id="d4673frrzXCDOLXUQlWJ-43" value="&lt;div style=&quot;&quot;&gt;&lt;div style=&quot;text-align: justify;&quot;&gt;&lt;span style=&quot;background-color: initial;&quot;&gt;1. 버거&lt;/span&gt;&lt;/div&gt;&lt;div style=&quot;&quot;&gt;&lt;div style=&quot;text-align: justify;&quot;&gt;&lt;span style=&quot;background-color: initial;&quot;&gt;2. 맥런치&lt;/span&gt;&lt;/div&gt;&lt;div style=&quot;text-align: justify;&quot;&gt;3. 맥모닝&lt;/div&gt;&lt;div style=&quot;text-align: justify;&quot;&gt;4. 해피스낵&lt;/div&gt;&lt;div style=&quot;text-align: justify;&quot;&gt;5. 사이드&lt;/div&gt;&lt;div style=&quot;text-align: justify;&quot;&gt;6. 디저트&lt;/div&gt;&lt;div style=&quot;text-align: justify;&quot;&gt;7. 맥카페&lt;/div&gt;&lt;div style=&quot;text-align: justify;&quot;&gt;8. 음료&lt;/div&gt;&lt;div style=&quot;text-align: justify;&quot;&gt;9. 해피밀&lt;/div&gt;&lt;/div&gt;&lt;/div&gt;" style="rounded=1;whiteSpace=wrap;html=1;fontSize=12;glass=0;strokeWidth=1;shadow=0;align=center;" vertex="1" parent="WIyWlLk6GJQsqaUBKTNV-1">
          <mxGeometry x="702" y="1675" width="120" height="225" as="geometry" />
        </mxCell>
        <mxCell id="d4673frrzXCDOLXUQlWJ-44" value="전체 카테고리 출력" style="rounded=1;whiteSpace=wrap;html=1;fontSize=12;glass=0;strokeWidth=1;shadow=0;" vertex="1" parent="WIyWlLk6GJQsqaUBKTNV-1">
          <mxGeometry x="701" y="1635" width="120" height="40" as="geometry" />
        </mxCell>
        <mxCell id="d4673frrzXCDOLXUQlWJ-47" value="" style="endArrow=classic;html=1;rounded=0;strokeColor=default;align=center;verticalAlign=middle;fontFamily=Helvetica;fontSize=12;fontColor=default;labelBackgroundColor=default;edgeStyle=orthogonalEdgeStyle;startSize=8;endSize=8;entryX=1;entryY=1;entryDx=0;entryDy=0;exitX=0;exitY=0.5;exitDx=0;exitDy=0;" edge="1" parent="WIyWlLk6GJQsqaUBKTNV-1" source="d4673frrzXCDOLXUQlWJ-43" target="d4673frrzXCDOLXUQlWJ-39">
          <mxGeometry width="50" height="50" relative="1" as="geometry">
            <mxPoint x="640" y="1840" as="sourcePoint" />
            <mxPoint x="680" y="1800" as="targetPoint" />
          </mxGeometry>
        </mxCell>
        <mxCell id="d4673frrzXCDOLXUQlWJ-53" value="3." style="edgeStyle=orthogonalEdgeStyle;shape=connector;rounded=0;orthogonalLoop=1;jettySize=auto;html=1;exitX=0.5;exitY=1;exitDx=0;exitDy=0;entryX=0;entryY=0.5;entryDx=0;entryDy=0;strokeColor=default;align=center;verticalAlign=middle;fontFamily=Helvetica;fontSize=12;fontColor=default;labelBackgroundColor=default;startSize=8;endArrow=block;endSize=8;endFill=0;" edge="1" parent="WIyWlLk6GJQsqaUBKTNV-1" source="d4673frrzXCDOLXUQlWJ-48" target="d4673frrzXCDOLXUQlWJ-51">
          <mxGeometry x="0.7146" y="4" relative="1" as="geometry">
            <mxPoint x="896" y="1862.5" as="sourcePoint" />
            <Array as="points">
              <mxPoint x="965" y="2194" />
            </Array>
            <mxPoint as="offset" />
          </mxGeometry>
        </mxCell>
        <mxCell id="d4673frrzXCDOLXUQlWJ-54" value="2." style="edgeStyle=orthogonalEdgeStyle;shape=connector;rounded=0;orthogonalLoop=1;jettySize=auto;html=1;exitX=0.5;exitY=0;exitDx=0;exitDy=0;entryX=0;entryY=0.5;entryDx=0;entryDy=0;strokeColor=default;align=center;verticalAlign=middle;fontFamily=Helvetica;fontSize=12;fontColor=default;labelBackgroundColor=default;startSize=8;endArrow=block;endSize=8;endFill=0;" edge="1" parent="WIyWlLk6GJQsqaUBKTNV-1" source="d4673frrzXCDOLXUQlWJ-48" target="d4673frrzXCDOLXUQlWJ-50">
          <mxGeometry x="0.3262" relative="1" as="geometry">
            <Array as="points">
              <mxPoint x="965" y="1630" />
            </Array>
            <mxPoint as="offset" />
          </mxGeometry>
        </mxCell>
        <mxCell id="d4673frrzXCDOLXUQlWJ-92" style="shape=connector;rounded=0;orthogonalLoop=1;jettySize=auto;html=1;exitX=1;exitY=0.5;exitDx=0;exitDy=0;strokeColor=default;align=center;verticalAlign=middle;fontFamily=Helvetica;fontSize=12;fontColor=default;labelBackgroundColor=default;startSize=8;endArrow=block;endFill=0;endSize=8;entryX=0;entryY=0.5;entryDx=0;entryDy=0;" edge="1" parent="WIyWlLk6GJQsqaUBKTNV-1" source="d4673frrzXCDOLXUQlWJ-48" target="d4673frrzXCDOLXUQlWJ-75">
          <mxGeometry relative="1" as="geometry">
            <mxPoint x="1080" y="1787.3529411764707" as="targetPoint" />
          </mxGeometry>
        </mxCell>
        <mxCell id="d4673frrzXCDOLXUQlWJ-154" value="5" style="edgeStyle=orthogonalEdgeStyle;shape=connector;rounded=0;orthogonalLoop=1;jettySize=auto;html=1;exitX=0.5;exitY=1;exitDx=0;exitDy=0;entryX=0.5;entryY=1;entryDx=0;entryDy=0;strokeColor=default;align=center;verticalAlign=middle;fontFamily=Helvetica;fontSize=12;fontColor=default;labelBackgroundColor=default;startSize=8;endArrow=block;endFill=0;endSize=8;" edge="1" parent="WIyWlLk6GJQsqaUBKTNV-1" source="d4673frrzXCDOLXUQlWJ-48" target="d4673frrzXCDOLXUQlWJ-80">
          <mxGeometry relative="1" as="geometry">
            <Array as="points">
              <mxPoint x="965" y="2280" />
              <mxPoint x="2047" y="2280" />
            </Array>
          </mxGeometry>
        </mxCell>
        <mxCell id="d4673frrzXCDOLXUQlWJ-159" value="8" style="edgeStyle=orthogonalEdgeStyle;shape=connector;rounded=0;orthogonalLoop=1;jettySize=auto;html=1;exitX=0.5;exitY=1;exitDx=0;exitDy=0;entryX=0.5;entryY=1;entryDx=0;entryDy=0;strokeColor=default;align=center;verticalAlign=middle;fontFamily=Helvetica;fontSize=12;fontColor=default;labelBackgroundColor=default;startSize=8;endArrow=block;endFill=0;endSize=8;" edge="1" parent="WIyWlLk6GJQsqaUBKTNV-1" source="d4673frrzXCDOLXUQlWJ-48" target="d4673frrzXCDOLXUQlWJ-84">
          <mxGeometry relative="1" as="geometry">
            <Array as="points">
              <mxPoint x="965" y="2370" />
              <mxPoint x="2213" y="2370" />
            </Array>
          </mxGeometry>
        </mxCell>
        <mxCell id="d4673frrzXCDOLXUQlWJ-187" value="4" style="edgeStyle=orthogonalEdgeStyle;shape=connector;rounded=0;orthogonalLoop=1;jettySize=auto;html=1;exitX=0.5;exitY=0;exitDx=0;exitDy=0;entryX=0;entryY=0.5;entryDx=0;entryDy=0;strokeColor=default;align=center;verticalAlign=middle;fontFamily=Helvetica;fontSize=12;fontColor=default;labelBackgroundColor=default;startSize=8;endArrow=block;endFill=0;endSize=8;" edge="1" parent="WIyWlLk6GJQsqaUBKTNV-1" source="d4673frrzXCDOLXUQlWJ-48" target="d4673frrzXCDOLXUQlWJ-78">
          <mxGeometry relative="1" as="geometry" />
        </mxCell>
        <mxCell id="d4673frrzXCDOLXUQlWJ-189" value="6" style="edgeStyle=orthogonalEdgeStyle;shape=connector;rounded=0;orthogonalLoop=1;jettySize=auto;html=1;exitX=0.5;exitY=0;exitDx=0;exitDy=0;entryX=0;entryY=0.5;entryDx=0;entryDy=0;strokeColor=default;align=center;verticalAlign=middle;fontFamily=Helvetica;fontSize=12;fontColor=default;labelBackgroundColor=default;startSize=8;endArrow=block;endFill=0;endSize=8;" edge="1" parent="WIyWlLk6GJQsqaUBKTNV-1" source="d4673frrzXCDOLXUQlWJ-48" target="d4673frrzXCDOLXUQlWJ-88">
          <mxGeometry x="0.1548" relative="1" as="geometry">
            <mxPoint as="offset" />
          </mxGeometry>
        </mxCell>
        <mxCell id="d4673frrzXCDOLXUQlWJ-48" value="카테고리 선택" style="rhombus;whiteSpace=wrap;html=1;fontFamily=Helvetica;fontSize=12;fontColor=default;labelBackgroundColor=default;" vertex="1" parent="WIyWlLk6GJQsqaUBKTNV-1">
          <mxGeometry x="890" y="1712.5" width="150" height="150" as="geometry" />
        </mxCell>
        <mxCell id="d4673frrzXCDOLXUQlWJ-105" style="edgeStyle=orthogonalEdgeStyle;shape=connector;rounded=0;orthogonalLoop=1;jettySize=auto;html=1;exitX=1;exitY=0.5;exitDx=0;exitDy=0;entryX=0;entryY=0.5;entryDx=0;entryDy=0;strokeColor=default;align=center;verticalAlign=middle;fontFamily=Helvetica;fontSize=12;fontColor=default;labelBackgroundColor=default;startSize=8;endArrow=block;endFill=0;endSize=8;" edge="1" parent="WIyWlLk6GJQsqaUBKTNV-1" source="d4673frrzXCDOLXUQlWJ-50" target="d4673frrzXCDOLXUQlWJ-55">
          <mxGeometry relative="1" as="geometry" />
        </mxCell>
        <mxCell id="d4673frrzXCDOLXUQlWJ-50" value="&lt;font style=&quot;font-size: 8px;&quot;&gt;if 점심?&lt;/font&gt;&lt;div&gt;&lt;font style=&quot;font-size: 8px;&quot;&gt;오전10시30분~&lt;/font&gt;&lt;/div&gt;&lt;div&gt;&lt;font style=&quot;font-size: 8px;&quot;&gt;오14:00&lt;/font&gt;&lt;/div&gt;" style="rhombus;whiteSpace=wrap;html=1;fontFamily=Helvetica;fontSize=12;fontColor=default;labelBackgroundColor=default;" vertex="1" parent="WIyWlLk6GJQsqaUBKTNV-1">
          <mxGeometry x="1120" y="1580" width="100" height="100" as="geometry" />
        </mxCell>
        <mxCell id="d4673frrzXCDOLXUQlWJ-109" style="shape=connector;rounded=0;orthogonalLoop=1;jettySize=auto;html=1;exitX=1;exitY=0.5;exitDx=0;exitDy=0;strokeColor=default;align=center;verticalAlign=middle;fontFamily=Helvetica;fontSize=12;fontColor=default;labelBackgroundColor=default;startSize=8;endArrow=block;endFill=0;endSize=8;entryX=-0.011;entryY=0.532;entryDx=0;entryDy=0;entryPerimeter=0;" edge="1" parent="WIyWlLk6GJQsqaUBKTNV-1" source="d4673frrzXCDOLXUQlWJ-51" target="d4673frrzXCDOLXUQlWJ-59">
          <mxGeometry relative="1" as="geometry">
            <mxPoint x="1100" y="2420" as="targetPoint" />
          </mxGeometry>
        </mxCell>
        <mxCell id="d4673frrzXCDOLXUQlWJ-51" value="&lt;font style=&quot;font-size: 8px;&quot;&gt;if 아침?&lt;/font&gt;&lt;div&gt;&lt;span style=&quot;font-size: 8px;&quot;&gt;오전04시~&lt;/span&gt;&lt;/div&gt;&lt;div&gt;&lt;span style=&quot;font-size: 8px;&quot;&gt;오전10:30&lt;/span&gt;&lt;/div&gt;" style="rhombus;whiteSpace=wrap;html=1;fontFamily=Helvetica;fontSize=12;fontColor=default;labelBackgroundColor=default;" vertex="1" parent="WIyWlLk6GJQsqaUBKTNV-1">
          <mxGeometry x="1060" y="2145" width="100" height="100" as="geometry" />
        </mxCell>
        <mxCell id="d4673frrzXCDOLXUQlWJ-66" value="" style="group" vertex="1" connectable="0" parent="WIyWlLk6GJQsqaUBKTNV-1">
          <mxGeometry x="1310" y="1550" width="110" height="135" as="geometry" />
        </mxCell>
        <mxCell id="d4673frrzXCDOLXUQlWJ-55" value="&lt;div style=&quot;text-align: left; background-color: rgb(251, 251, 251);&quot;&gt;빅맥세트 (5500)&lt;/div&gt;&lt;div style=&quot;text-align: left; background-color: rgb(251, 251, 251);&quot;&gt;더블 불고기 세트 (4500)&lt;/div&gt;&lt;div style=&quot;text-align: left; background-color: rgb(251, 251, 251);&quot;&gt;베이컨 토마토 디럭스 세트(6000)&lt;/div&gt;" style="whiteSpace=wrap;html=1;aspect=fixed;fontFamily=Helvetica;fontSize=12;fontColor=default;labelBackgroundColor=default;" vertex="1" parent="d4673frrzXCDOLXUQlWJ-66">
          <mxGeometry y="25" width="110" height="110" as="geometry" />
        </mxCell>
        <mxCell id="d4673frrzXCDOLXUQlWJ-56" value="맥런치" style="rounded=1;whiteSpace=wrap;html=1;fontFamily=Helvetica;fontSize=12;fontColor=default;labelBackgroundColor=default;container=0;" vertex="1" parent="d4673frrzXCDOLXUQlWJ-66">
          <mxGeometry width="110" height="25" as="geometry" />
        </mxCell>
        <mxCell id="d4673frrzXCDOLXUQlWJ-67" value="" style="group" vertex="1" connectable="0" parent="WIyWlLk6GJQsqaUBKTNV-1">
          <mxGeometry x="1210" y="2110" width="110" height="135" as="geometry" />
        </mxCell>
        <mxCell id="d4673frrzXCDOLXUQlWJ-57" value="맥모닝" style="rounded=1;whiteSpace=wrap;html=1;fontFamily=Helvetica;fontSize=12;fontColor=default;labelBackgroundColor=default;" vertex="1" parent="d4673frrzXCDOLXUQlWJ-67">
          <mxGeometry width="110" height="25" as="geometry" />
        </mxCell>
        <mxCell id="d4673frrzXCDOLXUQlWJ-59" value="&lt;div style=&quot;text-align: left; background-color: rgb(251, 251, 251);&quot;&gt;에그맥머핀 (2800)&lt;div&gt;소시지에그맥머핀 (3000)&lt;/div&gt;&lt;div&gt;베이컨에그맥머핀 (3300)&lt;/div&gt;&lt;div&gt;치킨맥머핀 (3000)&lt;/div&gt;&lt;/div&gt;" style="whiteSpace=wrap;html=1;aspect=fixed;fontFamily=Helvetica;fontSize=12;fontColor=default;labelBackgroundColor=default;" vertex="1" parent="d4673frrzXCDOLXUQlWJ-67">
          <mxGeometry y="25" width="110" height="110" as="geometry" />
        </mxCell>
        <mxCell id="d4673frrzXCDOLXUQlWJ-76" value="" style="group" vertex="1" connectable="0" parent="WIyWlLk6GJQsqaUBKTNV-1">
          <mxGeometry x="1360" y="1726.5" width="70" height="135" as="geometry" />
        </mxCell>
        <mxCell id="d4673frrzXCDOLXUQlWJ-65" value="1.버거" style="rounded=1;whiteSpace=wrap;html=1;fontFamily=Helvetica;fontSize=12;fontColor=default;labelBackgroundColor=default;" vertex="1" parent="d4673frrzXCDOLXUQlWJ-76">
          <mxGeometry width="70" height="25" as="geometry" />
        </mxCell>
        <mxCell id="d4673frrzXCDOLXUQlWJ-75" value="a.전체&lt;div&gt;b.비프&lt;/div&gt;&lt;div&gt;c.치킨&lt;/div&gt;" style="whiteSpace=wrap;html=1;aspect=fixed;fontFamily=Helvetica;fontSize=12;fontColor=default;labelBackgroundColor=default;" vertex="1" parent="d4673frrzXCDOLXUQlWJ-76">
          <mxGeometry y="25" width="70" height="70" as="geometry" />
        </mxCell>
        <mxCell id="d4673frrzXCDOLXUQlWJ-79" value="" style="group" vertex="1" connectable="0" parent="WIyWlLk6GJQsqaUBKTNV-1">
          <mxGeometry x="1544" y="1370.75" width="110" height="135" as="geometry" />
        </mxCell>
        <mxCell id="d4673frrzXCDOLXUQlWJ-68" value="4.해피스낵" style="rounded=1;whiteSpace=wrap;html=1;fontFamily=Helvetica;fontSize=12;fontColor=default;labelBackgroundColor=default;" vertex="1" parent="d4673frrzXCDOLXUQlWJ-79">
          <mxGeometry width="110" height="25" as="geometry" />
        </mxCell>
        <mxCell id="d4673frrzXCDOLXUQlWJ-78" value="&lt;div style=&quot;text-align: left; background-color: rgb(251, 251, 251);&quot;&gt;드립커피M (1000)&lt;/div&gt;&lt;div style=&quot;text-align: left; background-color: rgb(251, 251, 251);&quot;&gt;제로콜라M (1000)&lt;/div&gt;&lt;div style=&quot;text-align: left; background-color: rgb(251, 251, 251);&quot;&gt;치즈버거 (2000)&lt;/div&gt;&lt;div style=&quot;text-align: left; background-color: rgb(251, 251, 251);&quot;&gt;치즈스틱2조각 (2000)&lt;/div&gt;&lt;div style=&quot;text-align: left; background-color: rgb(251, 251, 251);&quot;&gt;후렌치후라이s (1000)&lt;/div&gt;" style="whiteSpace=wrap;html=1;aspect=fixed;fontFamily=Helvetica;fontSize=12;fontColor=default;labelBackgroundColor=default;" vertex="1" parent="d4673frrzXCDOLXUQlWJ-79">
          <mxGeometry y="25" width="110" height="110" as="geometry" />
        </mxCell>
        <mxCell id="d4673frrzXCDOLXUQlWJ-81" value="" style="group" vertex="1" connectable="0" parent="WIyWlLk6GJQsqaUBKTNV-1">
          <mxGeometry x="1977" y="1953" width="140" height="165" as="geometry" />
        </mxCell>
        <mxCell id="d4673frrzXCDOLXUQlWJ-69" value="5.사이드" style="rounded=1;whiteSpace=wrap;html=1;fontFamily=Helvetica;fontSize=12;fontColor=default;labelBackgroundColor=default;" vertex="1" parent="d4673frrzXCDOLXUQlWJ-81">
          <mxGeometry width="140" height="25" as="geometry" />
        </mxCell>
        <mxCell id="d4673frrzXCDOLXUQlWJ-80" value="&lt;div style=&quot;text-align: left; background-color: rgb(251, 251, 251);&quot;&gt;맥윙 2조각 (2000)&lt;/div&gt;&lt;div style=&quot;text-align: left; background-color: rgb(251, 251, 251);&quot;&gt;맥윙 4조각 (3500)&lt;/div&gt;&lt;div style=&quot;text-align: left; background-color: rgb(251, 251, 251);&quot;&gt;맥윙 8조각 (6000)&lt;/div&gt;&lt;div style=&quot;text-align: left; background-color: rgb(251, 251, 251);&quot;&gt;치즈스틱4조각 (3800)&lt;/div&gt;&lt;div style=&quot;text-align: left; background-color: rgb(251, 251, 251);&quot;&gt;후렌치후라이s (1000)&lt;/div&gt;&lt;div style=&quot;text-align: left; background-color: rgb(251, 251, 251);&quot;&gt;후렌치후라이M (1500)&lt;/div&gt;&lt;div style=&quot;text-align: left; background-color: rgb(251, 251, 251);&quot;&gt;후헨치후라이L (2000)&lt;/div&gt;&lt;div style=&quot;text-align: left; background-color: rgb(251, 251, 251);&quot;&gt;맥너겟4조각 (2000)&lt;/div&gt;&lt;div style=&quot;text-align: left; background-color: rgb(251, 251, 251);&quot;&gt;맥너겟 6조각 (2800)&lt;/div&gt;" style="whiteSpace=wrap;html=1;aspect=fixed;fontFamily=Helvetica;fontSize=12;fontColor=default;labelBackgroundColor=default;" vertex="1" parent="d4673frrzXCDOLXUQlWJ-81">
          <mxGeometry y="25" width="140" height="140" as="geometry" />
        </mxCell>
        <mxCell id="d4673frrzXCDOLXUQlWJ-85" value="" style="group" vertex="1" connectable="0" parent="WIyWlLk6GJQsqaUBKTNV-1">
          <mxGeometry x="2150" y="1955" width="125" height="150" as="geometry" />
        </mxCell>
        <mxCell id="d4673frrzXCDOLXUQlWJ-72" value="8.음료&lt;span style=&quot;color: rgba(0, 0, 0, 0); font-family: monospace; font-size: 0px; text-align: start; text-wrap-mode: nowrap; background-color: rgb(251, 251, 251);&quot;&gt;%3CmxGraphModel%3E%3Croot%3E%3CmxCell%20id%3D%220%22%2F%3E%3CmxCell%20id%3D%221%22%20parent%3D%220%22%2F%3E%3CmxCell%20id%3D%222%22%20value%3D%226.%EB%94%94%EC%A0%80%ED%8A%B8%22%20style%3D%22rounded%3D1%3BwhiteSpace%3Dwrap%3Bhtml%3D1%3BfontFamily%3DHelvetica%3BfontSize%3D12%3BfontColor%3Ddefault%3BlabelBackgroundColor%3Ddefault%3B%22%20vertex%3D%221%22%20parent%3D%221%22%3E%3CmxGeometry%20x%3D%221360%22%20y%3D%221930%22%20width%3D%22110%22%20height%3D%2225%22%20as%3D%22geometry%22%2F%3E%3C%2FmxCell%3E%3C%2Froot%3E%3C%2FmxGraphModel%3E&lt;/span&gt;" style="rounded=1;whiteSpace=wrap;html=1;fontFamily=Helvetica;fontSize=12;fontColor=default;labelBackgroundColor=default;" vertex="1" parent="d4673frrzXCDOLXUQlWJ-85">
          <mxGeometry width="125" height="25" as="geometry" />
        </mxCell>
        <mxCell id="d4673frrzXCDOLXUQlWJ-84" value="&lt;div style=&quot;text-align: left; background-color: rgb(251, 251, 251);&quot;&gt;콜라 M 1000&lt;/div&gt;&lt;div style=&quot;text-align: left; background-color: rgb(251, 251, 251);&quot;&gt;콜라 L 1500&lt;/div&gt;&lt;div style=&quot;text-align: left; background-color: rgb(251, 251, 251);&quot;&gt;콜라제로 M 1000&lt;/div&gt;&lt;div style=&quot;text-align: left; background-color: rgb(251, 251, 251);&quot;&gt;콜라제로 L 1500&lt;/div&gt;&lt;div style=&quot;text-align: left; background-color: rgb(251, 251, 251);&quot;&gt;사이다 M 1000&lt;/div&gt;&lt;div style=&quot;text-align: left; background-color: rgb(251, 251, 251);&quot;&gt;사이다 L 1500&lt;/div&gt;&lt;div style=&quot;text-align: left; background-color: rgb(251, 251, 251);&quot;&gt;오렌지주스 1000&lt;/div&gt;&lt;div style=&quot;text-align: left; background-color: rgb(251, 251, 251);&quot;&gt;생수 1000&lt;/div&gt;" style="whiteSpace=wrap;html=1;aspect=fixed;fontFamily=Helvetica;fontSize=12;fontColor=default;labelBackgroundColor=default;" vertex="1" parent="d4673frrzXCDOLXUQlWJ-85">
          <mxGeometry y="25" width="125" height="125" as="geometry" />
        </mxCell>
        <mxCell id="d4673frrzXCDOLXUQlWJ-87" value="" style="group" vertex="1" connectable="0" parent="WIyWlLk6GJQsqaUBKTNV-1">
          <mxGeometry x="1540" y="980" width="120" height="145" as="geometry" />
        </mxCell>
        <mxCell id="d4673frrzXCDOLXUQlWJ-71" value="7.맥카페" style="rounded=1;whiteSpace=wrap;html=1;fontFamily=Helvetica;fontSize=12;fontColor=default;labelBackgroundColor=default;" vertex="1" parent="d4673frrzXCDOLXUQlWJ-87">
          <mxGeometry width="120" height="25" as="geometry" />
        </mxCell>
        <mxCell id="d4673frrzXCDOLXUQlWJ-86" value="&lt;div style=&quot;text-align: left; background-color: rgb(251, 251, 251);&quot;&gt;카페라떼 2000&lt;/div&gt;&lt;div style=&quot;text-align: left; background-color: rgb(251, 251, 251);&quot;&gt;아이스카페라떼 2000&lt;/div&gt;&lt;div style=&quot;text-align: left; background-color: rgb(251, 251, 251);&quot;&gt;아이스드립커피 1000&lt;/div&gt;&lt;div style=&quot;text-align: left; background-color: rgb(251, 251, 251);&quot;&gt;드립커피 1000&lt;/div&gt;" style="whiteSpace=wrap;html=1;aspect=fixed;fontFamily=Helvetica;fontSize=12;fontColor=default;labelBackgroundColor=default;" vertex="1" parent="d4673frrzXCDOLXUQlWJ-87">
          <mxGeometry y="25" width="120" height="120" as="geometry" />
        </mxCell>
        <mxCell id="d4673frrzXCDOLXUQlWJ-89" value="" style="group" vertex="1" connectable="0" parent="WIyWlLk6GJQsqaUBKTNV-1">
          <mxGeometry x="1550" y="1200" width="110" height="135" as="geometry" />
        </mxCell>
        <mxCell id="d4673frrzXCDOLXUQlWJ-70" value="6.디저트" style="rounded=1;whiteSpace=wrap;html=1;fontFamily=Helvetica;fontSize=12;fontColor=default;labelBackgroundColor=default;" vertex="1" parent="d4673frrzXCDOLXUQlWJ-89">
          <mxGeometry width="110" height="25" as="geometry" />
        </mxCell>
        <mxCell id="d4673frrzXCDOLXUQlWJ-88" value="&lt;div style=&quot;text-align: left; background-color: rgb(251, 251, 251);&quot;&gt;맥플러리 3000&lt;/div&gt;&lt;div style=&quot;text-align: left; background-color: rgb(251, 251, 251);&quot;&gt;아이스크림콘 1000&lt;/div&gt;" style="whiteSpace=wrap;html=1;aspect=fixed;fontFamily=Helvetica;fontSize=12;fontColor=default;labelBackgroundColor=default;" vertex="1" parent="d4673frrzXCDOLXUQlWJ-89">
          <mxGeometry y="25" width="110" height="110" as="geometry" />
        </mxCell>
        <mxCell id="d4673frrzXCDOLXUQlWJ-102" value="" style="group" vertex="1" connectable="0" parent="WIyWlLk6GJQsqaUBKTNV-1">
          <mxGeometry x="1255" y="1890" width="280" height="190" as="geometry" />
        </mxCell>
        <mxCell id="d4673frrzXCDOLXUQlWJ-97" value="" style="group" vertex="1" connectable="0" parent="d4673frrzXCDOLXUQlWJ-102">
          <mxGeometry y="25" width="140" height="165" as="geometry" />
        </mxCell>
        <mxCell id="d4673frrzXCDOLXUQlWJ-93" value="&lt;div&gt;&amp;nbsp;더블쿼터파운더치즈 6000/ 쿼터파운더치즈 5000/ 불고기 3000/ 더블불고기 3500/ 빅맥 4500/ 치즈 3000/ 베이컨토마토디럭스 5000/ 햄버거 2500&lt;/div&gt;&lt;div&gt;&lt;br&gt;&lt;/div&gt;" style="whiteSpace=wrap;html=1;aspect=fixed;fontFamily=Helvetica;fontSize=12;fontColor=default;labelBackgroundColor=default;" vertex="1" parent="d4673frrzXCDOLXUQlWJ-97">
          <mxGeometry y="25" width="140" height="140" as="geometry" />
        </mxCell>
        <mxCell id="d4673frrzXCDOLXUQlWJ-96" value="비프" style="rounded=1;whiteSpace=wrap;html=1;fontFamily=Helvetica;fontSize=12;fontColor=default;labelBackgroundColor=default;" vertex="1" parent="d4673frrzXCDOLXUQlWJ-97">
          <mxGeometry width="140" height="25" as="geometry" />
        </mxCell>
        <mxCell id="d4673frrzXCDOLXUQlWJ-98" value="" style="group" vertex="1" connectable="0" parent="d4673frrzXCDOLXUQlWJ-102">
          <mxGeometry x="140" y="25" width="140" height="165" as="geometry" />
        </mxCell>
        <mxCell id="d4673frrzXCDOLXUQlWJ-94" value="&lt;div&gt;맥스파이시상하이 5500/ 맥치킨 4500/ 맥크리스피디럭스 6000&lt;/div&gt;&lt;div&gt;*세트선택시 위 금액에 +1500원&lt;/div&gt;" style="whiteSpace=wrap;html=1;aspect=fixed;fontFamily=Helvetica;fontSize=12;fontColor=default;labelBackgroundColor=default;" vertex="1" parent="d4673frrzXCDOLXUQlWJ-98">
          <mxGeometry y="25" width="140" height="140" as="geometry" />
        </mxCell>
        <mxCell id="d4673frrzXCDOLXUQlWJ-95" value="치킨" style="rounded=1;whiteSpace=wrap;html=1;fontFamily=Helvetica;fontSize=12;fontColor=default;labelBackgroundColor=default;" vertex="1" parent="d4673frrzXCDOLXUQlWJ-98">
          <mxGeometry width="140" height="25" as="geometry" />
        </mxCell>
        <mxCell id="d4673frrzXCDOLXUQlWJ-101" value="전체" style="rounded=1;whiteSpace=wrap;html=1;fontFamily=Helvetica;fontSize=12;fontColor=default;labelBackgroundColor=default;" vertex="1" parent="d4673frrzXCDOLXUQlWJ-102">
          <mxGeometry width="280" height="25" as="geometry" />
        </mxCell>
        <mxCell id="d4673frrzXCDOLXUQlWJ-104" style="edgeStyle=orthogonalEdgeStyle;shape=connector;rounded=0;orthogonalLoop=1;jettySize=auto;html=1;exitX=0.5;exitY=0;exitDx=0;exitDy=0;entryX=0.5;entryY=1;entryDx=0;entryDy=0;strokeColor=default;align=center;verticalAlign=middle;fontFamily=Helvetica;fontSize=12;fontColor=default;labelBackgroundColor=default;startSize=8;endArrow=block;endFill=1;endSize=8;" edge="1" parent="WIyWlLk6GJQsqaUBKTNV-1" source="d4673frrzXCDOLXUQlWJ-101" target="d4673frrzXCDOLXUQlWJ-75">
          <mxGeometry relative="1" as="geometry" />
        </mxCell>
        <mxCell id="d4673frrzXCDOLXUQlWJ-144" style="edgeStyle=orthogonalEdgeStyle;shape=connector;rounded=0;orthogonalLoop=1;jettySize=auto;html=1;exitX=0.5;exitY=0;exitDx=0;exitDy=0;entryX=0;entryY=0.5;entryDx=0;entryDy=0;strokeColor=default;align=center;verticalAlign=middle;fontFamily=Helvetica;fontSize=12;fontColor=default;labelBackgroundColor=default;startSize=8;endArrow=block;endFill=0;endSize=8;" edge="1" parent="WIyWlLk6GJQsqaUBKTNV-1" source="d4673frrzXCDOLXUQlWJ-110" target="d4673frrzXCDOLXUQlWJ-125">
          <mxGeometry relative="1" as="geometry" />
        </mxCell>
        <mxCell id="d4673frrzXCDOLXUQlWJ-110" value="버거 선택&lt;div&gt;(단품/세트)&lt;/div&gt;" style="rhombus;whiteSpace=wrap;html=1;fontFamily=Helvetica;fontSize=12;fontColor=default;labelBackgroundColor=default;" vertex="1" parent="WIyWlLk6GJQsqaUBKTNV-1">
          <mxGeometry x="1535" y="1744" width="85" height="85" as="geometry" />
        </mxCell>
        <mxCell id="d4673frrzXCDOLXUQlWJ-112" style="edgeStyle=orthogonalEdgeStyle;shape=connector;rounded=0;orthogonalLoop=1;jettySize=auto;html=1;exitX=1;exitY=0.5;exitDx=0;exitDy=0;entryX=0;entryY=0.5;entryDx=0;entryDy=0;strokeColor=default;align=center;verticalAlign=middle;fontFamily=Helvetica;fontSize=12;fontColor=default;labelBackgroundColor=default;startSize=8;endArrow=block;endFill=0;endSize=8;" edge="1" parent="WIyWlLk6GJQsqaUBKTNV-1" source="d4673frrzXCDOLXUQlWJ-75" target="d4673frrzXCDOLXUQlWJ-110">
          <mxGeometry relative="1" as="geometry" />
        </mxCell>
        <mxCell id="d4673frrzXCDOLXUQlWJ-113" style="edgeStyle=orthogonalEdgeStyle;shape=connector;rounded=0;orthogonalLoop=1;jettySize=auto;html=1;exitX=1;exitY=0.5;exitDx=0;exitDy=0;strokeColor=default;align=center;verticalAlign=middle;fontFamily=Helvetica;fontSize=12;fontColor=default;labelBackgroundColor=default;startSize=8;endArrow=block;endFill=0;endSize=8;entryX=0;entryY=0;entryDx=0;entryDy=0;" edge="1" parent="WIyWlLk6GJQsqaUBKTNV-1" source="d4673frrzXCDOLXUQlWJ-55" target="d4673frrzXCDOLXUQlWJ-110">
          <mxGeometry relative="1" as="geometry" />
        </mxCell>
        <mxCell id="d4673frrzXCDOLXUQlWJ-114" style="edgeStyle=orthogonalEdgeStyle;shape=connector;rounded=0;orthogonalLoop=1;jettySize=auto;html=1;exitX=1;exitY=0.5;exitDx=0;exitDy=0;entryX=0;entryY=1;entryDx=0;entryDy=0;strokeColor=default;align=center;verticalAlign=middle;fontFamily=Helvetica;fontSize=12;fontColor=default;labelBackgroundColor=default;startSize=8;endArrow=block;endFill=0;endSize=8;" edge="1" parent="WIyWlLk6GJQsqaUBKTNV-1" source="d4673frrzXCDOLXUQlWJ-59" target="d4673frrzXCDOLXUQlWJ-110">
          <mxGeometry relative="1" as="geometry" />
        </mxCell>
        <mxCell id="d4673frrzXCDOLXUQlWJ-257" value="메뉴 선택" style="edgeStyle=orthogonalEdgeStyle;shape=connector;rounded=0;orthogonalLoop=1;jettySize=auto;html=1;exitX=1;exitY=0.5;exitDx=0;exitDy=0;entryX=0;entryY=0.5;entryDx=0;entryDy=0;strokeColor=default;align=center;verticalAlign=middle;fontFamily=Helvetica;fontSize=12;fontColor=default;labelBackgroundColor=default;startSize=8;endArrow=block;endFill=0;endSize=8;" edge="1" parent="WIyWlLk6GJQsqaUBKTNV-1" source="d4673frrzXCDOLXUQlWJ-127" target="d4673frrzXCDOLXUQlWJ-256">
          <mxGeometry relative="1" as="geometry" />
        </mxCell>
        <mxCell id="d4673frrzXCDOLXUQlWJ-127" value="단품" style="whiteSpace=wrap;html=1;aspect=fixed;fontFamily=Helvetica;fontSize=12;fontColor=default;labelBackgroundColor=default;" vertex="1" parent="WIyWlLk6GJQsqaUBKTNV-1">
          <mxGeometry x="1670" y="2460" width="50" height="50" as="geometry" />
        </mxCell>
        <mxCell id="d4673frrzXCDOLXUQlWJ-134" style="edgeStyle=orthogonalEdgeStyle;shape=connector;rounded=0;orthogonalLoop=1;jettySize=auto;html=1;exitX=0.5;exitY=1;exitDx=0;exitDy=0;entryX=0;entryY=0.5;entryDx=0;entryDy=0;strokeColor=default;align=center;verticalAlign=middle;fontFamily=Helvetica;fontSize=12;fontColor=default;labelBackgroundColor=default;startSize=8;endArrow=block;endFill=0;endSize=8;" edge="1" parent="WIyWlLk6GJQsqaUBKTNV-1" source="d4673frrzXCDOLXUQlWJ-110" target="d4673frrzXCDOLXUQlWJ-127">
          <mxGeometry relative="1" as="geometry" />
        </mxCell>
        <mxCell id="d4673frrzXCDOLXUQlWJ-147" style="edgeStyle=orthogonalEdgeStyle;shape=connector;rounded=0;orthogonalLoop=1;jettySize=auto;html=1;exitX=0.5;exitY=0;exitDx=0;exitDy=0;entryX=0;entryY=0.5;entryDx=0;entryDy=0;strokeColor=default;align=center;verticalAlign=middle;fontFamily=Helvetica;fontSize=12;fontColor=default;labelBackgroundColor=default;startSize=8;endArrow=block;endFill=0;endSize=8;" edge="1" parent="WIyWlLk6GJQsqaUBKTNV-1" source="d4673frrzXCDOLXUQlWJ-135" target="d4673frrzXCDOLXUQlWJ-140">
          <mxGeometry relative="1" as="geometry" />
        </mxCell>
        <mxCell id="d4673frrzXCDOLXUQlWJ-135" value="사이즈 선택" style="rhombus;whiteSpace=wrap;html=1;fontFamily=Helvetica;fontSize=12;fontColor=default;labelBackgroundColor=default;" vertex="1" parent="WIyWlLk6GJQsqaUBKTNV-1">
          <mxGeometry x="1790" y="1642.5" width="80" height="80" as="geometry" />
        </mxCell>
        <mxCell id="d4673frrzXCDOLXUQlWJ-136" style="edgeStyle=orthogonalEdgeStyle;shape=connector;rounded=0;orthogonalLoop=1;jettySize=auto;html=1;exitX=1;exitY=0.5;exitDx=0;exitDy=0;strokeColor=default;align=center;verticalAlign=middle;fontFamily=Helvetica;fontSize=12;fontColor=default;labelBackgroundColor=default;startSize=8;endArrow=block;endFill=0;endSize=8;" edge="1" parent="WIyWlLk6GJQsqaUBKTNV-1" source="d4673frrzXCDOLXUQlWJ-125" target="d4673frrzXCDOLXUQlWJ-135">
          <mxGeometry relative="1" as="geometry" />
        </mxCell>
        <mxCell id="d4673frrzXCDOLXUQlWJ-152" style="edgeStyle=orthogonalEdgeStyle;shape=connector;rounded=0;orthogonalLoop=1;jettySize=auto;html=1;exitX=1;exitY=0.5;exitDx=0;exitDy=0;entryX=0.5;entryY=0;entryDx=0;entryDy=0;strokeColor=default;align=center;verticalAlign=middle;fontFamily=Helvetica;fontSize=12;fontColor=default;labelBackgroundColor=default;startSize=8;endArrow=block;endFill=0;endSize=8;" edge="1" parent="WIyWlLk6GJQsqaUBKTNV-1" source="d4673frrzXCDOLXUQlWJ-140" target="d4673frrzXCDOLXUQlWJ-151">
          <mxGeometry relative="1" as="geometry">
            <Array as="points">
              <mxPoint x="1962" y="1621" />
              <mxPoint x="2026" y="1620" />
            </Array>
          </mxGeometry>
        </mxCell>
        <mxCell id="d4673frrzXCDOLXUQlWJ-140" value="라지" style="whiteSpace=wrap;html=1;aspect=fixed;fontFamily=Helvetica;fontSize=12;fontColor=default;labelBackgroundColor=default;" vertex="1" parent="WIyWlLk6GJQsqaUBKTNV-1">
          <mxGeometry x="1900" y="1600.5" width="40" height="40" as="geometry" />
        </mxCell>
        <mxCell id="d4673frrzXCDOLXUQlWJ-141" value="" style="group" vertex="1" connectable="0" parent="WIyWlLk6GJQsqaUBKTNV-1">
          <mxGeometry x="1690" y="1622.5" width="70" height="95.00173913043477" as="geometry" />
        </mxCell>
        <mxCell id="d4673frrzXCDOLXUQlWJ-124" value="세트(+1500)" style="rounded=1;whiteSpace=wrap;html=1;fontFamily=Helvetica;fontSize=12;fontColor=default;labelBackgroundColor=default;" vertex="1" parent="d4673frrzXCDOLXUQlWJ-141">
          <mxGeometry width="70" height="25" as="geometry" />
        </mxCell>
        <mxCell id="d4673frrzXCDOLXUQlWJ-125" value="라지/&lt;div&gt;스몰&lt;/div&gt;" style="whiteSpace=wrap;html=1;aspect=fixed;fontFamily=Helvetica;fontSize=12;fontColor=default;labelBackgroundColor=default;" vertex="1" parent="d4673frrzXCDOLXUQlWJ-141">
          <mxGeometry y="25.00173913043477" width="70" height="70" as="geometry" />
        </mxCell>
        <mxCell id="d4673frrzXCDOLXUQlWJ-153" style="edgeStyle=orthogonalEdgeStyle;shape=connector;rounded=0;orthogonalLoop=1;jettySize=auto;html=1;exitX=1;exitY=0.5;exitDx=0;exitDy=0;entryX=0.5;entryY=1;entryDx=0;entryDy=0;strokeColor=default;align=center;verticalAlign=middle;fontFamily=Helvetica;fontSize=12;fontColor=default;labelBackgroundColor=default;startSize=8;endArrow=block;endFill=0;endSize=8;" edge="1" parent="WIyWlLk6GJQsqaUBKTNV-1" source="d4673frrzXCDOLXUQlWJ-145" target="d4673frrzXCDOLXUQlWJ-151">
          <mxGeometry relative="1" as="geometry">
            <Array as="points">
              <mxPoint x="2026" y="1740" />
            </Array>
          </mxGeometry>
        </mxCell>
        <mxCell id="d4673frrzXCDOLXUQlWJ-145" value="스몰" style="whiteSpace=wrap;html=1;aspect=fixed;fontFamily=Helvetica;fontSize=12;fontColor=default;labelBackgroundColor=default;" vertex="1" parent="WIyWlLk6GJQsqaUBKTNV-1">
          <mxGeometry x="1900" y="1719.5" width="40" height="40" as="geometry" />
        </mxCell>
        <mxCell id="d4673frrzXCDOLXUQlWJ-150" style="edgeStyle=orthogonalEdgeStyle;shape=connector;rounded=0;orthogonalLoop=1;jettySize=auto;html=1;exitX=0.5;exitY=1;exitDx=0;exitDy=0;entryX=0;entryY=0.563;entryDx=0;entryDy=0;entryPerimeter=0;strokeColor=default;align=center;verticalAlign=middle;fontFamily=Helvetica;fontSize=12;fontColor=default;labelBackgroundColor=default;startSize=8;endArrow=block;endFill=0;endSize=8;" edge="1" parent="WIyWlLk6GJQsqaUBKTNV-1" source="d4673frrzXCDOLXUQlWJ-135" target="d4673frrzXCDOLXUQlWJ-145">
          <mxGeometry relative="1" as="geometry" />
        </mxCell>
        <mxCell id="d4673frrzXCDOLXUQlWJ-158" style="edgeStyle=orthogonalEdgeStyle;shape=connector;rounded=0;orthogonalLoop=1;jettySize=auto;html=1;exitX=1;exitY=0.5;exitDx=0;exitDy=0;entryX=0;entryY=0.5;entryDx=0;entryDy=0;strokeColor=default;align=center;verticalAlign=middle;fontFamily=Helvetica;fontSize=12;fontColor=default;labelBackgroundColor=default;startSize=8;endArrow=block;endFill=0;endSize=8;" edge="1" parent="WIyWlLk6GJQsqaUBKTNV-1" source="d4673frrzXCDOLXUQlWJ-151" target="d4673frrzXCDOLXUQlWJ-157">
          <mxGeometry relative="1" as="geometry" />
        </mxCell>
        <mxCell id="d4673frrzXCDOLXUQlWJ-151" value="세트 메뉴&amp;nbsp;&lt;div&gt;사이드&lt;/div&gt;" style="rhombus;whiteSpace=wrap;html=1;fontFamily=Helvetica;fontSize=12;fontColor=default;labelBackgroundColor=default;" vertex="1" parent="WIyWlLk6GJQsqaUBKTNV-1">
          <mxGeometry x="1983" y="1637.5" width="85" height="85" as="geometry" />
        </mxCell>
        <mxCell id="d4673frrzXCDOLXUQlWJ-155" style="edgeStyle=orthogonalEdgeStyle;shape=connector;rounded=0;orthogonalLoop=1;jettySize=auto;html=1;exitX=0.5;exitY=0;exitDx=0;exitDy=0;entryX=1;entryY=1;entryDx=0;entryDy=0;strokeColor=default;align=center;verticalAlign=middle;fontFamily=Helvetica;fontSize=12;fontColor=default;labelBackgroundColor=default;startSize=8;endArrow=classic;endFill=1;endSize=8;" edge="1" parent="WIyWlLk6GJQsqaUBKTNV-1" source="d4673frrzXCDOLXUQlWJ-69" target="d4673frrzXCDOLXUQlWJ-151">
          <mxGeometry relative="1" as="geometry" />
        </mxCell>
        <mxCell id="d4673frrzXCDOLXUQlWJ-165" style="edgeStyle=orthogonalEdgeStyle;shape=connector;rounded=0;orthogonalLoop=1;jettySize=auto;html=1;exitX=1;exitY=0.5;exitDx=0;exitDy=0;strokeColor=default;align=center;verticalAlign=middle;fontFamily=Helvetica;fontSize=12;fontColor=default;labelBackgroundColor=default;startSize=8;endArrow=block;endFill=0;endSize=8;entryX=0;entryY=0.418;entryDx=0;entryDy=0;entryPerimeter=0;" edge="1" parent="WIyWlLk6GJQsqaUBKTNV-1" source="d4673frrzXCDOLXUQlWJ-157" target="d4673frrzXCDOLXUQlWJ-162">
          <mxGeometry relative="1" as="geometry">
            <mxPoint x="2310" y="1680.105263157895" as="targetPoint" />
          </mxGeometry>
        </mxCell>
        <mxCell id="d4673frrzXCDOLXUQlWJ-157" value="세트 메뉴&amp;nbsp;&lt;div&gt;음료&lt;/div&gt;" style="rhombus;whiteSpace=wrap;html=1;fontFamily=Helvetica;fontSize=12;fontColor=default;labelBackgroundColor=default;" vertex="1" parent="WIyWlLk6GJQsqaUBKTNV-1">
          <mxGeometry x="2125" y="1637.5" width="85" height="85" as="geometry" />
        </mxCell>
        <mxCell id="d4673frrzXCDOLXUQlWJ-161" style="edgeStyle=orthogonalEdgeStyle;shape=connector;rounded=0;orthogonalLoop=1;jettySize=auto;html=1;exitX=0.5;exitY=0;exitDx=0;exitDy=0;entryX=0.5;entryY=1;entryDx=0;entryDy=0;strokeColor=default;align=center;verticalAlign=middle;fontFamily=Helvetica;fontSize=12;fontColor=default;labelBackgroundColor=default;startSize=8;endArrow=classic;endFill=1;endSize=8;" edge="1" parent="WIyWlLk6GJQsqaUBKTNV-1" source="d4673frrzXCDOLXUQlWJ-72" target="d4673frrzXCDOLXUQlWJ-157">
          <mxGeometry relative="1" as="geometry" />
        </mxCell>
        <mxCell id="d4673frrzXCDOLXUQlWJ-164" value="" style="group" vertex="1" connectable="0" parent="WIyWlLk6GJQsqaUBKTNV-1">
          <mxGeometry x="2320" y="1585" width="170" height="195" as="geometry" />
        </mxCell>
        <mxCell id="d4673frrzXCDOLXUQlWJ-162" value="&lt;span style=&quot;background-color: rgb(251, 251, 251);&quot;&gt;1.선택한 버거&lt;/span&gt;&lt;div&gt;&lt;span style=&quot;background-color: rgb(251, 251, 251);&quot;&gt;(a.재료 추가/변경)&lt;/span&gt;&lt;div style=&quot;background-color: rgb(251, 251, 251);&quot;&gt;2.선택한 사이드&lt;/div&gt;&lt;div style=&quot;background-color: rgb(251, 251, 251);&quot;&gt;(b.재료 추가/변경&amp;amp;c.수정)&lt;/div&gt;&lt;div style=&quot;background-color: rgb(251, 251, 251);&quot;&gt;3.선택한 음료&lt;/div&gt;&lt;div style=&quot;background-color: rgb(251, 251, 251);&quot;&gt;(d.재료 추가/변경 &amp;amp;e.수정)&lt;/div&gt;&lt;div style=&quot;background-color: rgb(251, 251, 251);&quot;&gt;4. 취소&lt;/div&gt;&lt;div style=&quot;background-color: rgb(251, 251, 251);&quot;&gt;5. 장바구니에 담기&lt;/div&gt;&lt;div style=&quot;background-color: rgb(251, 251, 251);&quot;&gt;6.처음으로&lt;/div&gt;&lt;/div&gt;" style="whiteSpace=wrap;html=1;aspect=fixed;fontFamily=Helvetica;fontSize=12;fontColor=default;labelBackgroundColor=default;" vertex="1" parent="d4673frrzXCDOLXUQlWJ-164">
          <mxGeometry y="25" width="170" height="170" as="geometry" />
        </mxCell>
        <mxCell id="d4673frrzXCDOLXUQlWJ-163" value="선택된 메뉴&amp;nbsp;" style="rounded=1;whiteSpace=wrap;html=1;fontFamily=Helvetica;fontSize=12;fontColor=default;labelBackgroundColor=default;" vertex="1" parent="d4673frrzXCDOLXUQlWJ-164">
          <mxGeometry width="170" height="25" as="geometry" />
        </mxCell>
        <mxCell id="d4673frrzXCDOLXUQlWJ-177" value="b" style="edgeStyle=orthogonalEdgeStyle;shape=connector;rounded=0;orthogonalLoop=1;jettySize=auto;html=1;exitX=0.5;exitY=1;exitDx=0;exitDy=0;strokeColor=default;align=center;verticalAlign=middle;fontFamily=Helvetica;fontSize=12;fontColor=default;labelBackgroundColor=default;startSize=8;endArrow=block;endFill=0;endSize=8;entryX=0;entryY=0.6;entryDx=0;entryDy=0;entryPerimeter=0;" edge="1" parent="WIyWlLk6GJQsqaUBKTNV-1" source="d4673frrzXCDOLXUQlWJ-162" target="d4673frrzXCDOLXUQlWJ-170">
          <mxGeometry x="0.422" relative="1" as="geometry">
            <Array as="points">
              <mxPoint x="2405" y="1810" />
              <mxPoint x="2600" y="1810" />
            </Array>
            <mxPoint as="offset" />
          </mxGeometry>
        </mxCell>
        <mxCell id="d4673frrzXCDOLXUQlWJ-178" value="d" style="edgeStyle=orthogonalEdgeStyle;shape=connector;rounded=0;orthogonalLoop=1;jettySize=auto;html=1;exitX=0.5;exitY=1;exitDx=0;exitDy=0;entryX=0;entryY=0.5;entryDx=0;entryDy=0;strokeColor=default;align=center;verticalAlign=middle;fontFamily=Helvetica;fontSize=12;fontColor=default;labelBackgroundColor=default;startSize=8;endArrow=block;endFill=0;endSize=8;" edge="1" parent="WIyWlLk6GJQsqaUBKTNV-1" source="d4673frrzXCDOLXUQlWJ-162" target="d4673frrzXCDOLXUQlWJ-172">
          <mxGeometry x="0.6558" y="-3" relative="1" as="geometry">
            <Array as="points">
              <mxPoint x="2405" y="1978" />
            </Array>
            <mxPoint as="offset" />
          </mxGeometry>
        </mxCell>
        <mxCell id="d4673frrzXCDOLXUQlWJ-180" value="e" style="edgeStyle=orthogonalEdgeStyle;shape=connector;rounded=0;orthogonalLoop=1;jettySize=auto;html=1;exitX=0.5;exitY=1;exitDx=0;exitDy=0;entryX=1;entryY=0.5;entryDx=0;entryDy=0;strokeColor=default;align=center;verticalAlign=middle;fontFamily=Helvetica;fontSize=12;fontColor=default;labelBackgroundColor=default;startSize=8;endArrow=block;endFill=0;endSize=8;" edge="1" parent="WIyWlLk6GJQsqaUBKTNV-1" source="d4673frrzXCDOLXUQlWJ-162" target="d4673frrzXCDOLXUQlWJ-84">
          <mxGeometry x="0.6696" relative="1" as="geometry">
            <mxPoint as="offset" />
          </mxGeometry>
        </mxCell>
        <mxCell id="d4673frrzXCDOLXUQlWJ-182" value="c" style="edgeStyle=orthogonalEdgeStyle;shape=connector;rounded=0;orthogonalLoop=1;jettySize=auto;html=1;exitX=0.5;exitY=1;exitDx=0;exitDy=0;entryX=0.5;entryY=1;entryDx=0;entryDy=0;strokeColor=default;align=center;verticalAlign=middle;fontFamily=Helvetica;fontSize=12;fontColor=default;labelBackgroundColor=default;startSize=8;endArrow=block;endFill=0;endSize=8;" edge="1" parent="WIyWlLk6GJQsqaUBKTNV-1" source="d4673frrzXCDOLXUQlWJ-162" target="d4673frrzXCDOLXUQlWJ-80">
          <mxGeometry x="0.5181" relative="1" as="geometry">
            <Array as="points">
              <mxPoint x="2405" y="2320" />
              <mxPoint x="2047" y="2320" />
            </Array>
            <mxPoint as="offset" />
          </mxGeometry>
        </mxCell>
        <mxCell id="d4673frrzXCDOLXUQlWJ-206" value="결제" style="edgeStyle=orthogonalEdgeStyle;shape=connector;rounded=0;orthogonalLoop=1;jettySize=auto;html=1;exitX=1;exitY=0.5;exitDx=0;exitDy=0;entryX=0;entryY=0.5;entryDx=0;entryDy=0;strokeColor=default;align=center;verticalAlign=middle;fontFamily=Helvetica;fontSize=12;fontColor=default;labelBackgroundColor=default;startSize=8;endArrow=block;endFill=0;endSize=8;" edge="1" parent="WIyWlLk6GJQsqaUBKTNV-1" source="d4673frrzXCDOLXUQlWJ-183" target="d4673frrzXCDOLXUQlWJ-186">
          <mxGeometry relative="1" as="geometry" />
        </mxCell>
        <mxCell id="d4673frrzXCDOLXUQlWJ-183" value="장바구니" style="whiteSpace=wrap;html=1;aspect=fixed;fontFamily=Helvetica;fontSize=12;fontColor=default;labelBackgroundColor=default;" vertex="1" parent="WIyWlLk6GJQsqaUBKTNV-1">
          <mxGeometry x="2960" y="1400" width="119.5" height="119.5" as="geometry" />
        </mxCell>
        <mxCell id="d4673frrzXCDOLXUQlWJ-220" style="edgeStyle=orthogonalEdgeStyle;shape=connector;rounded=0;orthogonalLoop=1;jettySize=auto;html=1;exitX=1;exitY=0.5;exitDx=0;exitDy=0;entryX=0;entryY=0.5;entryDx=0;entryDy=0;strokeColor=default;align=center;verticalAlign=middle;fontFamily=Helvetica;fontSize=12;fontColor=default;labelBackgroundColor=default;startSize=8;endArrow=block;endFill=0;endSize=8;" edge="1" parent="WIyWlLk6GJQsqaUBKTNV-1" source="d4673frrzXCDOLXUQlWJ-186" target="d4673frrzXCDOLXUQlWJ-207">
          <mxGeometry relative="1" as="geometry" />
        </mxCell>
        <mxCell id="d4673frrzXCDOLXUQlWJ-186" value="결제하기" style="rhombus;whiteSpace=wrap;html=1;fontFamily=Helvetica;fontSize=12;fontColor=default;labelBackgroundColor=default;" vertex="1" parent="WIyWlLk6GJQsqaUBKTNV-1">
          <mxGeometry x="3158" y="1398.75" width="120" height="120" as="geometry" />
        </mxCell>
        <mxCell id="d4673frrzXCDOLXUQlWJ-188" value="7" style="edgeStyle=orthogonalEdgeStyle;shape=connector;rounded=0;orthogonalLoop=1;jettySize=auto;html=1;exitX=0.5;exitY=0;exitDx=0;exitDy=0;entryX=0;entryY=0.417;entryDx=0;entryDy=0;entryPerimeter=0;strokeColor=default;align=center;verticalAlign=middle;fontFamily=Helvetica;fontSize=12;fontColor=default;labelBackgroundColor=default;startSize=8;endArrow=block;endFill=0;endSize=8;" edge="1" parent="WIyWlLk6GJQsqaUBKTNV-1" source="d4673frrzXCDOLXUQlWJ-48" target="d4673frrzXCDOLXUQlWJ-86">
          <mxGeometry x="0.3184" relative="1" as="geometry">
            <mxPoint as="offset" />
          </mxGeometry>
        </mxCell>
        <mxCell id="d4673frrzXCDOLXUQlWJ-198" style="edgeStyle=orthogonalEdgeStyle;shape=connector;rounded=0;orthogonalLoop=1;jettySize=auto;html=1;exitX=1;exitY=0.5;exitDx=0;exitDy=0;entryX=0.5;entryY=0;entryDx=0;entryDy=0;strokeColor=default;align=center;verticalAlign=middle;fontFamily=Helvetica;fontSize=12;fontColor=default;labelBackgroundColor=default;startSize=8;endArrow=block;endFill=0;endSize=8;" edge="1" parent="WIyWlLk6GJQsqaUBKTNV-1" source="d4673frrzXCDOLXUQlWJ-194" target="d4673frrzXCDOLXUQlWJ-183">
          <mxGeometry relative="1" as="geometry" />
        </mxCell>
        <mxCell id="d4673frrzXCDOLXUQlWJ-194" value="장바구니에 담기" style="rhombus;whiteSpace=wrap;html=1;fontFamily=Helvetica;fontSize=12;fontColor=default;labelBackgroundColor=default;" vertex="1" parent="WIyWlLk6GJQsqaUBKTNV-1">
          <mxGeometry x="2345" y="1220" width="120" height="120" as="geometry" />
        </mxCell>
        <mxCell id="d4673frrzXCDOLXUQlWJ-195" style="edgeStyle=orthogonalEdgeStyle;shape=connector;rounded=0;orthogonalLoop=1;jettySize=auto;html=1;exitX=1;exitY=0.5;exitDx=0;exitDy=0;entryX=0.5;entryY=0;entryDx=0;entryDy=0;strokeColor=default;align=center;verticalAlign=middle;fontFamily=Helvetica;fontSize=12;fontColor=default;labelBackgroundColor=default;startSize=8;endArrow=block;endFill=0;endSize=8;" edge="1" parent="WIyWlLk6GJQsqaUBKTNV-1" source="d4673frrzXCDOLXUQlWJ-86" target="d4673frrzXCDOLXUQlWJ-194">
          <mxGeometry relative="1" as="geometry" />
        </mxCell>
        <mxCell id="d4673frrzXCDOLXUQlWJ-196" style="edgeStyle=orthogonalEdgeStyle;shape=connector;rounded=0;orthogonalLoop=1;jettySize=auto;html=1;exitX=1;exitY=0.5;exitDx=0;exitDy=0;entryX=0;entryY=0.5;entryDx=0;entryDy=0;strokeColor=default;align=center;verticalAlign=middle;fontFamily=Helvetica;fontSize=12;fontColor=default;labelBackgroundColor=default;startSize=8;endArrow=block;endFill=0;endSize=8;" edge="1" parent="WIyWlLk6GJQsqaUBKTNV-1" source="d4673frrzXCDOLXUQlWJ-88" target="d4673frrzXCDOLXUQlWJ-194">
          <mxGeometry relative="1" as="geometry" />
        </mxCell>
        <mxCell id="d4673frrzXCDOLXUQlWJ-205" value="저장" style="edgeStyle=orthogonalEdgeStyle;shape=connector;rounded=0;orthogonalLoop=1;jettySize=auto;html=1;exitX=1;exitY=0.5;exitDx=0;exitDy=0;strokeColor=default;align=center;verticalAlign=middle;fontFamily=Helvetica;fontSize=12;fontColor=default;labelBackgroundColor=default;startSize=8;endArrow=block;endFill=0;endSize=8;" edge="1" parent="WIyWlLk6GJQsqaUBKTNV-1" source="d4673frrzXCDOLXUQlWJ-200">
          <mxGeometry relative="1" as="geometry">
            <mxPoint x="3020" y="1520" as="targetPoint" />
          </mxGeometry>
        </mxCell>
        <mxCell id="d4673frrzXCDOLXUQlWJ-200" value="변경 저장&lt;div&gt;취소&lt;/div&gt;" style="rhombus;whiteSpace=wrap;html=1;fontFamily=Helvetica;fontSize=12;fontColor=default;labelBackgroundColor=default;" vertex="1" parent="WIyWlLk6GJQsqaUBKTNV-1">
          <mxGeometry x="2800" y="1904" width="150" height="150" as="geometry" />
        </mxCell>
        <mxCell id="d4673frrzXCDOLXUQlWJ-201" style="edgeStyle=orthogonalEdgeStyle;shape=connector;rounded=0;orthogonalLoop=1;jettySize=auto;html=1;exitX=1;exitY=0.5;exitDx=0;exitDy=0;strokeColor=default;align=center;verticalAlign=middle;fontFamily=Helvetica;fontSize=12;fontColor=default;labelBackgroundColor=default;startSize=8;endArrow=block;endFill=0;endSize=8;entryX=0.5;entryY=0;entryDx=0;entryDy=0;" edge="1" parent="WIyWlLk6GJQsqaUBKTNV-1" source="d4673frrzXCDOLXUQlWJ-170" target="d4673frrzXCDOLXUQlWJ-200">
          <mxGeometry relative="1" as="geometry" />
        </mxCell>
        <mxCell id="d4673frrzXCDOLXUQlWJ-202" style="edgeStyle=orthogonalEdgeStyle;shape=connector;rounded=0;orthogonalLoop=1;jettySize=auto;html=1;exitX=1;exitY=0.5;exitDx=0;exitDy=0;entryX=0;entryY=0.5;entryDx=0;entryDy=0;strokeColor=default;align=center;verticalAlign=middle;fontFamily=Helvetica;fontSize=12;fontColor=default;labelBackgroundColor=default;startSize=8;endArrow=block;endFill=0;endSize=8;" edge="1" parent="WIyWlLk6GJQsqaUBKTNV-1" source="d4673frrzXCDOLXUQlWJ-172" target="d4673frrzXCDOLXUQlWJ-200">
          <mxGeometry relative="1" as="geometry" />
        </mxCell>
        <mxCell id="d4673frrzXCDOLXUQlWJ-203" style="edgeStyle=orthogonalEdgeStyle;shape=connector;rounded=0;orthogonalLoop=1;jettySize=auto;html=1;exitX=1;exitY=0.5;exitDx=0;exitDy=0;entryX=0.5;entryY=1;entryDx=0;entryDy=0;strokeColor=default;align=center;verticalAlign=middle;fontFamily=Helvetica;fontSize=12;fontColor=default;labelBackgroundColor=default;startSize=8;endArrow=block;endFill=0;endSize=8;" edge="1" parent="WIyWlLk6GJQsqaUBKTNV-1" source="d4673frrzXCDOLXUQlWJ-175" target="d4673frrzXCDOLXUQlWJ-200">
          <mxGeometry relative="1" as="geometry" />
        </mxCell>
        <mxCell id="d4673frrzXCDOLXUQlWJ-204" value="취소" style="edgeStyle=orthogonalEdgeStyle;shape=connector;rounded=0;orthogonalLoop=1;jettySize=auto;html=1;exitX=1;exitY=0.5;exitDx=0;exitDy=0;entryX=1;entryY=0.418;entryDx=0;entryDy=0;entryPerimeter=0;strokeColor=default;align=center;verticalAlign=middle;fontFamily=Helvetica;fontSize=12;fontColor=default;labelBackgroundColor=default;startSize=8;endArrow=block;endFill=0;endSize=8;" edge="1" parent="WIyWlLk6GJQsqaUBKTNV-1" source="d4673frrzXCDOLXUQlWJ-200" target="d4673frrzXCDOLXUQlWJ-162">
          <mxGeometry x="-0.3591" relative="1" as="geometry">
            <mxPoint y="1" as="offset" />
          </mxGeometry>
        </mxCell>
        <mxCell id="d4673frrzXCDOLXUQlWJ-212" value="디저트" style="edgeStyle=orthogonalEdgeStyle;shape=connector;rounded=0;orthogonalLoop=1;jettySize=auto;html=1;exitX=0.5;exitY=0;exitDx=0;exitDy=0;entryX=0.5;entryY=0;entryDx=0;entryDy=0;strokeColor=default;align=center;verticalAlign=middle;fontFamily=Helvetica;fontSize=12;fontColor=default;labelBackgroundColor=default;startSize=8;endArrow=block;endFill=0;endSize=8;" edge="1" parent="WIyWlLk6GJQsqaUBKTNV-1" source="d4673frrzXCDOLXUQlWJ-207" target="d4673frrzXCDOLXUQlWJ-70">
          <mxGeometry relative="1" as="geometry" />
        </mxCell>
        <mxCell id="d4673frrzXCDOLXUQlWJ-217" value="해피스낵" style="edgeStyle=orthogonalEdgeStyle;shape=connector;rounded=0;orthogonalLoop=1;jettySize=auto;html=1;exitX=0.5;exitY=0;exitDx=0;exitDy=0;entryX=0.5;entryY=0;entryDx=0;entryDy=0;strokeColor=default;align=center;verticalAlign=middle;fontFamily=Helvetica;fontSize=12;fontColor=default;labelBackgroundColor=default;startSize=8;endArrow=block;endFill=0;endSize=8;" edge="1" parent="WIyWlLk6GJQsqaUBKTNV-1" source="d4673frrzXCDOLXUQlWJ-207" target="d4673frrzXCDOLXUQlWJ-68">
          <mxGeometry relative="1" as="geometry">
            <Array as="points">
              <mxPoint x="3400" y="1370" />
              <mxPoint x="1935" y="1370" />
            </Array>
          </mxGeometry>
        </mxCell>
        <mxCell id="d4673frrzXCDOLXUQlWJ-218" value="맥카페" style="edgeStyle=orthogonalEdgeStyle;shape=connector;rounded=0;orthogonalLoop=1;jettySize=auto;html=1;exitX=0.5;exitY=0;exitDx=0;exitDy=0;entryX=0.5;entryY=0;entryDx=0;entryDy=0;strokeColor=default;align=center;verticalAlign=middle;fontFamily=Helvetica;fontSize=12;fontColor=default;labelBackgroundColor=default;startSize=8;endArrow=block;endFill=0;endSize=8;" edge="1" parent="WIyWlLk6GJQsqaUBKTNV-1" source="d4673frrzXCDOLXUQlWJ-207" target="d4673frrzXCDOLXUQlWJ-71">
          <mxGeometry relative="1" as="geometry" />
        </mxCell>
        <mxCell id="d4673frrzXCDOLXUQlWJ-219" value="음료" style="edgeStyle=orthogonalEdgeStyle;shape=connector;rounded=0;orthogonalLoop=1;jettySize=auto;html=1;exitX=0.5;exitY=1;exitDx=0;exitDy=0;entryX=0.75;entryY=1;entryDx=0;entryDy=0;strokeColor=default;align=center;verticalAlign=middle;fontFamily=Helvetica;fontSize=12;fontColor=default;labelBackgroundColor=default;startSize=8;endArrow=block;endFill=0;endSize=8;" edge="1" parent="WIyWlLk6GJQsqaUBKTNV-1" source="d4673frrzXCDOLXUQlWJ-207" target="d4673frrzXCDOLXUQlWJ-84">
          <mxGeometry relative="1" as="geometry">
            <Array as="points">
              <mxPoint x="3400" y="2460" />
              <mxPoint x="2244" y="2460" />
            </Array>
          </mxGeometry>
        </mxCell>
        <mxCell id="d4673frrzXCDOLXUQlWJ-243" style="shape=connector;rounded=0;orthogonalLoop=1;jettySize=auto;html=1;exitX=1;exitY=0.5;exitDx=0;exitDy=0;entryX=0;entryY=0.5;entryDx=0;entryDy=0;strokeColor=default;align=center;verticalAlign=middle;fontFamily=Helvetica;fontSize=12;fontColor=default;labelBackgroundColor=default;startSize=8;endArrow=block;endFill=0;endSize=8;" edge="1" parent="WIyWlLk6GJQsqaUBKTNV-1" source="d4673frrzXCDOLXUQlWJ-207" target="d4673frrzXCDOLXUQlWJ-221">
          <mxGeometry relative="1" as="geometry">
            <mxPoint x="3441" y="1458.79" as="sourcePoint" />
            <mxPoint x="3501" y="1458.75" as="targetPoint" />
          </mxGeometry>
        </mxCell>
        <mxCell id="d4673frrzXCDOLXUQlWJ-207" value="추가 메뉴" style="whiteSpace=wrap;html=1;aspect=fixed;fontFamily=Helvetica;fontSize=12;fontColor=default;labelBackgroundColor=default;" vertex="1" parent="WIyWlLk6GJQsqaUBKTNV-1">
          <mxGeometry x="3360" y="1419.75" width="80" height="80" as="geometry" />
        </mxCell>
        <mxCell id="d4673frrzXCDOLXUQlWJ-213" style="edgeStyle=orthogonalEdgeStyle;shape=connector;rounded=0;orthogonalLoop=1;jettySize=auto;html=1;exitX=1;exitY=0.5;exitDx=0;exitDy=0;strokeColor=default;align=center;verticalAlign=middle;fontFamily=Helvetica;fontSize=12;fontColor=default;labelBackgroundColor=default;startSize=8;endArrow=block;endFill=0;endSize=8;" edge="1" parent="WIyWlLk6GJQsqaUBKTNV-1" source="d4673frrzXCDOLXUQlWJ-78" target="d4673frrzXCDOLXUQlWJ-194">
          <mxGeometry relative="1" as="geometry" />
        </mxCell>
        <mxCell id="d4673frrzXCDOLXUQlWJ-215" value="5" style="edgeStyle=orthogonalEdgeStyle;shape=connector;rounded=0;orthogonalLoop=1;jettySize=auto;html=1;exitX=0.5;exitY=0;exitDx=0;exitDy=0;entryX=0.5;entryY=1;entryDx=0;entryDy=0;strokeColor=default;align=center;verticalAlign=middle;fontFamily=Helvetica;fontSize=12;fontColor=default;labelBackgroundColor=default;startSize=8;endArrow=block;endFill=0;endSize=8;" edge="1" parent="WIyWlLk6GJQsqaUBKTNV-1" source="d4673frrzXCDOLXUQlWJ-163" target="d4673frrzXCDOLXUQlWJ-194">
          <mxGeometry x="-0.6327" y="5" relative="1" as="geometry">
            <mxPoint as="offset" />
          </mxGeometry>
        </mxCell>
        <mxCell id="d4673frrzXCDOLXUQlWJ-223" style="edgeStyle=orthogonalEdgeStyle;shape=connector;rounded=0;orthogonalLoop=1;jettySize=auto;html=1;exitX=0.5;exitY=1;exitDx=0;exitDy=0;entryX=0.75;entryY=1;entryDx=0;entryDy=0;strokeColor=default;align=center;verticalAlign=middle;fontFamily=Helvetica;fontSize=12;fontColor=default;labelBackgroundColor=default;startSize=8;endArrow=block;endFill=0;endSize=8;" edge="1" parent="WIyWlLk6GJQsqaUBKTNV-1" source="d4673frrzXCDOLXUQlWJ-221" target="d4673frrzXCDOLXUQlWJ-207">
          <mxGeometry relative="1" as="geometry" />
        </mxCell>
        <mxCell id="d4673frrzXCDOLXUQlWJ-225" style="edgeStyle=orthogonalEdgeStyle;shape=connector;rounded=0;orthogonalLoop=1;jettySize=auto;html=1;exitX=1;exitY=0.5;exitDx=0;exitDy=0;entryX=0;entryY=0.5;entryDx=0;entryDy=0;strokeColor=default;align=center;verticalAlign=middle;fontFamily=Helvetica;fontSize=12;fontColor=default;labelBackgroundColor=default;startSize=8;endArrow=block;endFill=0;endSize=8;" edge="1" parent="WIyWlLk6GJQsqaUBKTNV-1" source="d4673frrzXCDOLXUQlWJ-221" target="d4673frrzXCDOLXUQlWJ-224">
          <mxGeometry relative="1" as="geometry" />
        </mxCell>
        <mxCell id="d4673frrzXCDOLXUQlWJ-221" value="선택 안함/선택" style="rhombus;whiteSpace=wrap;html=1;fontFamily=Helvetica;fontSize=12;fontColor=default;labelBackgroundColor=default;" vertex="1" parent="WIyWlLk6GJQsqaUBKTNV-1">
          <mxGeometry x="3500" y="1398.75" width="120" height="120" as="geometry" />
        </mxCell>
        <mxCell id="d4673frrzXCDOLXUQlWJ-227" style="edgeStyle=orthogonalEdgeStyle;shape=connector;rounded=0;orthogonalLoop=1;jettySize=auto;html=1;exitX=1;exitY=0.5;exitDx=0;exitDy=0;entryX=0;entryY=0.5;entryDx=0;entryDy=0;strokeColor=default;align=center;verticalAlign=middle;fontFamily=Helvetica;fontSize=12;fontColor=default;labelBackgroundColor=default;startSize=8;endArrow=block;endFill=0;endSize=8;" edge="1" parent="WIyWlLk6GJQsqaUBKTNV-1" source="d4673frrzXCDOLXUQlWJ-224" target="d4673frrzXCDOLXUQlWJ-226">
          <mxGeometry relative="1" as="geometry" />
        </mxCell>
        <mxCell id="d4673frrzXCDOLXUQlWJ-224" value="장바구니 내역" style="whiteSpace=wrap;html=1;aspect=fixed;fontFamily=Helvetica;fontSize=12;fontColor=default;labelBackgroundColor=default;" vertex="1" parent="WIyWlLk6GJQsqaUBKTNV-1">
          <mxGeometry x="3672" y="1408.75" width="100" height="100" as="geometry" />
        </mxCell>
        <mxCell id="d4673frrzXCDOLXUQlWJ-228" style="edgeStyle=orthogonalEdgeStyle;shape=connector;rounded=0;orthogonalLoop=1;jettySize=auto;html=1;exitX=0.5;exitY=0;exitDx=0;exitDy=0;entryX=0.5;entryY=0;entryDx=0;entryDy=0;strokeColor=default;align=center;verticalAlign=middle;fontFamily=Helvetica;fontSize=12;fontColor=default;labelBackgroundColor=default;startSize=8;endArrow=block;endFill=0;endSize=8;" edge="1" parent="WIyWlLk6GJQsqaUBKTNV-1" source="d4673frrzXCDOLXUQlWJ-226" target="d4673frrzXCDOLXUQlWJ-207">
          <mxGeometry relative="1" as="geometry" />
        </mxCell>
        <mxCell id="d4673frrzXCDOLXUQlWJ-230" style="edgeStyle=orthogonalEdgeStyle;shape=connector;rounded=0;orthogonalLoop=1;jettySize=auto;html=1;exitX=1;exitY=0.5;exitDx=0;exitDy=0;strokeColor=default;align=center;verticalAlign=middle;fontFamily=Helvetica;fontSize=12;fontColor=default;labelBackgroundColor=default;startSize=8;endArrow=block;endFill=0;endSize=8;entryX=0;entryY=0.5;entryDx=0;entryDy=0;" edge="1" parent="WIyWlLk6GJQsqaUBKTNV-1" source="d4673frrzXCDOLXUQlWJ-226" target="d4673frrzXCDOLXUQlWJ-229">
          <mxGeometry relative="1" as="geometry" />
        </mxCell>
        <mxCell id="d4673frrzXCDOLXUQlWJ-226" value="추가 주문/&lt;div&gt;주문 완료&lt;/div&gt;" style="rhombus;whiteSpace=wrap;html=1;fontFamily=Helvetica;fontSize=12;fontColor=default;labelBackgroundColor=default;" vertex="1" parent="WIyWlLk6GJQsqaUBKTNV-1">
          <mxGeometry x="3830" y="1409.75" width="100" height="100" as="geometry" />
        </mxCell>
        <mxCell id="d4673frrzXCDOLXUQlWJ-232" style="edgeStyle=orthogonalEdgeStyle;shape=connector;rounded=0;orthogonalLoop=1;jettySize=auto;html=1;exitX=1;exitY=0.5;exitDx=0;exitDy=0;entryX=0;entryY=0.5;entryDx=0;entryDy=0;strokeColor=default;align=center;verticalAlign=middle;fontFamily=Helvetica;fontSize=12;fontColor=default;labelBackgroundColor=default;startSize=8;endArrow=block;endFill=0;endSize=8;" edge="1" parent="WIyWlLk6GJQsqaUBKTNV-1" source="d4673frrzXCDOLXUQlWJ-229" target="d4673frrzXCDOLXUQlWJ-231">
          <mxGeometry relative="1" as="geometry" />
        </mxCell>
        <mxCell id="d4673frrzXCDOLXUQlWJ-229" value="결제 방법&lt;div&gt;1.카카오페이&lt;/div&gt;&lt;div&gt;2.모바일 상품권&lt;/div&gt;&lt;div&gt;3.카드결제&lt;/div&gt;" style="whiteSpace=wrap;html=1;aspect=fixed;fontFamily=Helvetica;fontSize=12;fontColor=default;labelBackgroundColor=default;" vertex="1" parent="WIyWlLk6GJQsqaUBKTNV-1">
          <mxGeometry x="4000" y="1403.75" width="110" height="110" as="geometry" />
        </mxCell>
        <mxCell id="d4673frrzXCDOLXUQlWJ-234" style="edgeStyle=orthogonalEdgeStyle;shape=connector;rounded=0;orthogonalLoop=1;jettySize=auto;html=1;exitX=1;exitY=0.5;exitDx=0;exitDy=0;entryX=0;entryY=0.5;entryDx=0;entryDy=0;strokeColor=default;align=center;verticalAlign=middle;fontFamily=Helvetica;fontSize=12;fontColor=default;labelBackgroundColor=default;startSize=8;endArrow=block;endFill=0;endSize=8;" edge="1" parent="WIyWlLk6GJQsqaUBKTNV-1" source="d4673frrzXCDOLXUQlWJ-231" target="d4673frrzXCDOLXUQlWJ-233">
          <mxGeometry relative="1" as="geometry" />
        </mxCell>
        <mxCell id="d4673frrzXCDOLXUQlWJ-231" value="결제수단 선택" style="rhombus;whiteSpace=wrap;html=1;fontFamily=Helvetica;fontSize=12;fontColor=default;labelBackgroundColor=default;" vertex="1" parent="WIyWlLk6GJQsqaUBKTNV-1">
          <mxGeometry x="4180" y="1409.75" width="100" height="100" as="geometry" />
        </mxCell>
        <mxCell id="d4673frrzXCDOLXUQlWJ-233" value="결제완료&lt;div&gt;주문번호/&lt;/div&gt;&lt;div&gt;영수증&lt;/div&gt;" style="whiteSpace=wrap;html=1;aspect=fixed;fontFamily=Helvetica;fontSize=12;fontColor=default;labelBackgroundColor=default;" vertex="1" parent="WIyWlLk6GJQsqaUBKTNV-1">
          <mxGeometry x="4340" y="1408.75" width="100" height="100" as="geometry" />
        </mxCell>
        <mxCell id="d4673frrzXCDOLXUQlWJ-236" value="" style="group" vertex="1" connectable="0" parent="WIyWlLk6GJQsqaUBKTNV-1">
          <mxGeometry x="2600" y="1739" width="120" height="100" as="geometry" />
        </mxCell>
        <mxCell id="d4673frrzXCDOLXUQlWJ-169" value="사이드 재료 추가/변경" style="rounded=1;whiteSpace=wrap;html=1;" vertex="1" parent="d4673frrzXCDOLXUQlWJ-236">
          <mxGeometry width="120" height="30" as="geometry" />
        </mxCell>
        <mxCell id="d4673frrzXCDOLXUQlWJ-170" value="1.변경&lt;div&gt;2.소금 추가/제외&lt;/div&gt;" style="whiteSpace=wrap;html=1;" vertex="1" parent="d4673frrzXCDOLXUQlWJ-236">
          <mxGeometry y="30" width="120" height="70" as="geometry" />
        </mxCell>
        <mxCell id="d4673frrzXCDOLXUQlWJ-239" value="" style="group" vertex="1" connectable="0" parent="WIyWlLk6GJQsqaUBKTNV-1">
          <mxGeometry x="2600" y="2030" width="120" height="128" as="geometry" />
        </mxCell>
        <mxCell id="d4673frrzXCDOLXUQlWJ-175" value="1..기본 재료로 변경&lt;div&gt;2.양상추 변경/삭제&lt;/div&gt;&lt;div&gt;3.토마토 변경/삭제&lt;/div&gt;&lt;div&gt;4.소스 변경/삭제&lt;/div&gt;&lt;div&gt;5.*패티 변경&lt;/div&gt;" style="whiteSpace=wrap;html=1;" vertex="1" parent="d4673frrzXCDOLXUQlWJ-239">
          <mxGeometry y="30" width="120" height="98" as="geometry" />
        </mxCell>
        <mxCell id="d4673frrzXCDOLXUQlWJ-176" value="버거 재료 추가/변경" style="rounded=1;whiteSpace=wrap;html=1;" vertex="1" parent="d4673frrzXCDOLXUQlWJ-239">
          <mxGeometry width="120" height="30" as="geometry" />
        </mxCell>
        <mxCell id="d4673frrzXCDOLXUQlWJ-240" value="" style="group" vertex="1" connectable="0" parent="WIyWlLk6GJQsqaUBKTNV-1">
          <mxGeometry x="2600" y="1912" width="120" height="103" as="geometry" />
        </mxCell>
        <mxCell id="d4673frrzXCDOLXUQlWJ-172" value="1.얼음 조금&lt;div&gt;2.얼음 보통&lt;/div&gt;&lt;div&gt;3.얼음 많이&lt;/div&gt;" style="whiteSpace=wrap;html=1;" vertex="1" parent="d4673frrzXCDOLXUQlWJ-240">
          <mxGeometry y="30" width="120" height="73" as="geometry" />
        </mxCell>
        <mxCell id="d4673frrzXCDOLXUQlWJ-173" value="음료 재료 추가/변경" style="rounded=1;whiteSpace=wrap;html=1;" vertex="1" parent="d4673frrzXCDOLXUQlWJ-240">
          <mxGeometry width="120" height="30" as="geometry" />
        </mxCell>
        <mxCell id="d4673frrzXCDOLXUQlWJ-241" value="a" style="edgeStyle=orthogonalEdgeStyle;shape=connector;rounded=0;orthogonalLoop=1;jettySize=auto;html=1;exitX=0.5;exitY=1;exitDx=0;exitDy=0;entryX=0.008;entryY=0.617;entryDx=0;entryDy=0;entryPerimeter=0;strokeColor=default;align=center;verticalAlign=middle;fontFamily=Helvetica;fontSize=12;fontColor=default;labelBackgroundColor=default;startSize=8;endArrow=block;endFill=0;endSize=8;" edge="1" parent="WIyWlLk6GJQsqaUBKTNV-1" source="d4673frrzXCDOLXUQlWJ-162" target="d4673frrzXCDOLXUQlWJ-175">
          <mxGeometry x="0.6609" relative="1" as="geometry">
            <mxPoint as="offset" />
          </mxGeometry>
        </mxCell>
        <mxCell id="d4673frrzXCDOLXUQlWJ-248" value="" style="group" vertex="1" connectable="0" parent="WIyWlLk6GJQsqaUBKTNV-1">
          <mxGeometry x="1535" y="600" width="230" height="275" as="geometry" />
        </mxCell>
        <mxCell id="d4673frrzXCDOLXUQlWJ-249" value="9.해피밀" style="rounded=1;whiteSpace=wrap;html=1;fontFamily=Helvetica;fontSize=12;fontColor=default;labelBackgroundColor=default;" vertex="1" parent="d4673frrzXCDOLXUQlWJ-248">
          <mxGeometry width="180" height="25" as="geometry" />
        </mxCell>
        <mxCell id="d4673frrzXCDOLXUQlWJ-250" value="&lt;div style=&quot;text-align: justify;&quot;&gt;&lt;font style=&quot;font-size: 10px;&quot;&gt;if 아침?&lt;/font&gt;&lt;/div&gt;&lt;div style=&quot;text-align: justify;&quot;&gt;&lt;font style=&quot;font-size: 10px;&quot;&gt;오전04시~&lt;/font&gt;&lt;/div&gt;&lt;div style=&quot;text-align: justify;&quot;&gt;&lt;font style=&quot;font-size: 10px;&quot;&gt;오전10:30&lt;/font&gt;&lt;/div&gt;&lt;div style=&quot;&quot;&gt;&lt;font style=&quot;font-size: 10px;&quot;&gt;&lt;div style=&quot;text-align: justify; background-color: rgb(251, 251, 251);&quot;&gt;에그맥머핀&lt;/div&gt;&lt;div style=&quot;text-align: justify; background-color: rgb(251, 251, 251);&quot;&gt;소시지에그맥머핀&lt;/div&gt;&lt;div style=&quot;text-align: justify; background-color: rgb(251, 251, 251);&quot;&gt;베이컨에그맥머핀&lt;/div&gt;&lt;/font&gt;&lt;/div&gt;&lt;div style=&quot;text-align: justify;&quot;&gt;&lt;font style=&quot;font-size: 10px;&quot;&gt;&lt;br&gt;&lt;/font&gt;&lt;/div&gt;&lt;div style=&quot;text-align: justify;&quot;&gt;&lt;font style=&quot;font-size: 10px;&quot;&gt;else&lt;/font&gt;&lt;/div&gt;&lt;div style=&quot;&quot;&gt;&lt;div style=&quot;text-align: justify; background-color: rgb(251, 251, 251);&quot;&gt;&lt;font style=&quot;font-size: 10px;&quot;&gt;치즈버거&lt;/font&gt;&lt;/div&gt;&lt;div style=&quot;text-align: justify; background-color: rgb(251, 251, 251);&quot;&gt;&lt;font style=&quot;font-size: 10px;&quot;&gt;햄버거&lt;/font&gt;&lt;/div&gt;&lt;div style=&quot;text-align: justify; background-color: rgb(251, 251, 251);&quot;&gt;&lt;font style=&quot;font-size: 10px;&quot;&gt;불고기버거&lt;/font&gt;&lt;/div&gt;&lt;div style=&quot;text-align: justify; background-color: rgb(251, 251, 251);&quot;&gt;&lt;font style=&quot;font-size: 10px;&quot;&gt;-------------------------------------------------&lt;/font&gt;&lt;/div&gt;&lt;div style=&quot;text-align: justify; background-color: rgb(251, 251, 251);&quot;&gt;&lt;font style=&quot;font-size: 10px;&quot;&gt;&lt;br&gt;&lt;/font&gt;&lt;/div&gt;&lt;div style=&quot;text-align: justify; background-color: rgb(251, 251, 251);&quot;&gt;&lt;font style=&quot;font-size: 10px;&quot;&gt;사이드: 파인애플&lt;/font&gt;&lt;/div&gt;&lt;div style=&quot;text-align: justify; background-color: rgb(251, 251, 251);&quot;&gt;&lt;font style=&quot;font-size: 10px;&quot;&gt;&lt;br&gt;&lt;/font&gt;&lt;/div&gt;&lt;div style=&quot;text-align: justify; background-color: rgb(251, 251, 251);&quot;&gt;&lt;font style=&quot;font-size: 10px;&quot;&gt;-------------------------------------------------&lt;/font&gt;&lt;/div&gt;&lt;div style=&quot;text-align: justify; background-color: rgb(251, 251, 251);&quot;&gt;&lt;font style=&quot;font-size: 10px;&quot;&gt;음료: 오렌지주스 or 생수&lt;/font&gt;&lt;/div&gt;&lt;/div&gt;" style="whiteSpace=wrap;html=1;fontFamily=Helvetica;fontSize=12;fontColor=default;labelBackgroundColor=default;align=center;" vertex="1" parent="d4673frrzXCDOLXUQlWJ-248">
          <mxGeometry y="25" width="180" height="250" as="geometry" />
        </mxCell>
        <mxCell id="d4673frrzXCDOLXUQlWJ-251" value="9" style="edgeStyle=orthogonalEdgeStyle;shape=connector;rounded=0;orthogonalLoop=1;jettySize=auto;html=1;exitX=0.5;exitY=0;exitDx=0;exitDy=0;entryX=0;entryY=0.46;entryDx=0;entryDy=0;entryPerimeter=0;strokeColor=default;align=center;verticalAlign=middle;fontFamily=Helvetica;fontSize=12;fontColor=default;labelBackgroundColor=default;startSize=8;endArrow=block;endFill=0;endSize=8;" edge="1" parent="WIyWlLk6GJQsqaUBKTNV-1" source="d4673frrzXCDOLXUQlWJ-48" target="d4673frrzXCDOLXUQlWJ-250">
          <mxGeometry x="0.4899" relative="1" as="geometry">
            <mxPoint as="offset" />
          </mxGeometry>
        </mxCell>
        <mxCell id="d4673frrzXCDOLXUQlWJ-252" style="edgeStyle=orthogonalEdgeStyle;shape=connector;rounded=0;orthogonalLoop=1;jettySize=auto;html=1;exitX=1;exitY=0.5;exitDx=0;exitDy=0;strokeColor=default;align=center;verticalAlign=middle;fontFamily=Helvetica;fontSize=12;fontColor=default;labelBackgroundColor=default;startSize=8;endArrow=block;endFill=0;endSize=8;entryX=0.5;entryY=0;entryDx=0;entryDy=0;" edge="1" parent="WIyWlLk6GJQsqaUBKTNV-1" source="d4673frrzXCDOLXUQlWJ-250" target="d4673frrzXCDOLXUQlWJ-194">
          <mxGeometry relative="1" as="geometry">
            <mxPoint x="2410" y="1220" as="targetPoint" />
          </mxGeometry>
        </mxCell>
        <mxCell id="d4673frrzXCDOLXUQlWJ-255" value="선택된 메뉴" style="rounded=1;whiteSpace=wrap;html=1;fontFamily=Helvetica;fontSize=12;fontColor=default;labelBackgroundColor=default;" vertex="1" parent="WIyWlLk6GJQsqaUBKTNV-1">
          <mxGeometry x="2068" y="2490" width="120" height="60" as="geometry" />
        </mxCell>
        <mxCell id="d4673frrzXCDOLXUQlWJ-258" value="a" style="edgeStyle=orthogonalEdgeStyle;shape=connector;rounded=0;orthogonalLoop=1;jettySize=auto;html=1;exitX=1;exitY=0.5;exitDx=0;exitDy=0;entryX=0.5;entryY=1;entryDx=0;entryDy=0;strokeColor=default;align=center;verticalAlign=middle;fontFamily=Helvetica;fontSize=12;fontColor=default;labelBackgroundColor=default;startSize=8;endArrow=block;endFill=0;endSize=8;" edge="1" parent="WIyWlLk6GJQsqaUBKTNV-1" source="d4673frrzXCDOLXUQlWJ-256" target="d4673frrzXCDOLXUQlWJ-175">
          <mxGeometry x="-0.4979" relative="1" as="geometry">
            <mxPoint as="offset" />
          </mxGeometry>
        </mxCell>
        <mxCell id="d4673frrzXCDOLXUQlWJ-256" value="&lt;span style=&quot;background-color: rgb(251, 251, 251);&quot;&gt;선택한 버거&lt;/span&gt;&lt;div&gt;&lt;span style=&quot;background-color: rgb(251, 251, 251);&quot;&gt;(a.재료 추가/변경)&lt;/span&gt;&lt;/div&gt;" style="whiteSpace=wrap;html=1;aspect=fixed;fontFamily=Helvetica;fontSize=12;fontColor=default;labelBackgroundColor=default;" vertex="1" parent="WIyWlLk6GJQsqaUBKTNV-1">
          <mxGeometry x="2068" y="2550" width="120" height="120" as="geometry" />
        </mxCell>
      </root>
    </mxGraphModel>
  </diagram>
</mxfile>
